<svg xmlns="http://www.w3.org/2000/svg" viewBox="0 0 320 240" fill="none" stroke-linecap="round" stroke-linejoin="round"><g class="dw"><rect x="115" y="40" width="90" height="170" rx="6" stroke="#0255B3" stroke-width="1.6" fill="#FFFFFF"/><rect x="128" y="56" width="64" height="36" rx="3" stroke="#0255B3" stroke-width="1.2" fill="#EAF2FC"/><text x="160" y="79" text-anchor="middle" font-family="Archivo,Arial" font-size="10" fill="#0255B3">100%</text><circle cx="160" cy="110" r="7" stroke="#EB5B1C" stroke-width="1.6" fill="#FFFFFF"/><line x1="128" y1="130" x2="128" y2="194" stroke="#8DB3E2" stroke-width="1"/><line x1="134" y1="130" x2="134" y2="194" stroke="#8DB3E2" stroke-width="1"/><line x1="140" y1="130" x2="140" y2="194" stroke="#8DB3E2" stroke-width="1"/><line x1="146" y1="130" x2="146" y2="194" stroke="#8DB3E2" stroke-width="1"/><line x1="152" y1="130" x2="152" y2="194" stroke="#8DB3E2" stroke-width="1"/><line x1="158" y1="130" x2="158" y2="194" stroke="#8DB3E2" stroke-width="1"/><line x1="164" y1="130" x2="164" y2="194" stroke="#8DB3E2" stroke-width="1"/><line x1="170" y1="130" x2="170" y2="194" stroke="#8DB3E2" stroke-width="1"/><line x1="176" y1="130" x2="176" y2="194" stroke="#8DB3E2" stroke-width="1"/><line x1="182" y1="130" x2="182" y2="194" stroke="#8DB3E2" stroke-width="1"/><line x1="188" y1="130" x2="188" y2="194" stroke="#8DB3E2" stroke-width="1"/><line x1="115" y1="226" x2="205" y2="226" stroke="#8DB3E2" stroke-width="1"/><line x1="115" y1="222" x2="115" y2="230" stroke="#8DB3E2" stroke-width="1"/><line x1="205" y1="222" x2="205" y2="230" stroke="#8DB3E2" stroke-width="1"/><text x="160.0" y="221" text-anchor="middle" font-family="Archivo,Arial,sans-serif" font-size="9" fill="#8DB3E2">tour</text></g></svg>